<?xml version="1.0" standalone="no"?>
<!DOCTYPE svg PUBLIC "-//W3C//DTD SVG 20010904//EN"
 "http://www.w3.org/TR/2001/REC-SVG-20010904/DTD/svg10.dtd">
<svg version="1.0" xmlns="http://www.w3.org/2000/svg"
 width="459.000000pt" height="459.000000pt" viewBox="0 0 459.000000 459.000000"
 preserveAspectRatio="xMidYMid meet">
<metadata>
Created by potrace 1.11, written by Peter Selinger 2001-2013
</metadata>
<g transform="translate(0.000000,459.000000) scale(0.100000,-0.100000)"
fill="#000000" stroke="none">
<path d="M3005 3037 c-89 -24 -245 -105 -245 -128 0 -14 112 -179 122 -179 5
0 26 12 47 26 48 31 121 54 173 54 47 0 88 -35 88 -75 0 -45 -26 -80 -127
-171 -202 -181 -254 -262 -261 -406 l-4 -88 346 0 346 0 0 110 0 110 -187 2
-188 3 60 60 c34 33 100 97 148 142 107 100 137 156 137 253 0 78 -14 132 -46
179 -27 41 -92 86 -143 102 -57 17 -210 20 -266 6z"/>
<path d="M1290 2860 l0 -160 250 0 250 0 0 -675 0 -675 190 0 190 0 0 675 0
675 250 0 250 0 0 160 0 160 -690 0 -690 0 0 -160z"/>
</g>
</svg>
